<svg width="24" height="24" viewBox="0 0 24 24" fill="none" xmlns="http://www.w3.org/2000/svg">
<g clip-path="url(#clip0_998_164585)">
<g clip-path="url(#clip1_998_164585)">
<path d="M18.6131 0H5.38691C2.4118 0 0 2.4118 0 5.38691V18.6131C0 21.5882 2.4118 24 5.38691 24H18.6131C21.5882 24 24 21.5882 24 18.6131V5.38691C24 2.4118 21.5882 0 18.6131 0Z" fill="#6772E5"/>
<path fill-rule="evenodd" clip-rule="evenodd" d="M11.0565 9.31076C11.0565 8.73715 11.5303 8.47945 12.2951 8.47945C13.5625 8.50685 14.8062 8.82844 15.928 9.41883V6.01876C14.7738 5.56615 13.5431 5.34034 12.3034 5.35371C9.34396 5.35371 7.36543 6.89995 7.36543 9.51027C7.36543 13.5505 12.9186 12.8937 12.9186 14.6395C12.9186 15.3128 12.3284 15.529 11.522 15.529C10.1014 15.4506 8.71843 15.0437 7.48182 14.3402V17.8234C8.74189 18.3679 10.0994 18.6507 11.4721 18.6547C14.5064 18.6547 16.6013 17.1584 16.6013 14.4982C16.6263 10.167 11.0565 10.9484 11.0565 9.31076Z" fill="white"/>
</g>
</g>
<defs>
<clipPath id="clip0_998_164585">
<rect width="24" height="24" fill="white"/>
</clipPath>
<clipPath id="clip1_998_164585">
<rect width="24" height="24" fill="white"/>
</clipPath>
</defs>
</svg>
