<svg width="24" height="24" viewBox="0 0 24 24" fill="none" xmlns="http://www.w3.org/2000/svg">
<g clip-path="url(#clip0_998_164625)">
<g clip-path="url(#clip1_998_164625)">
<path d="M23.9963 12.5994C23.9963 10.5818 22.7425 8.83843 20.8816 8.15284C20.9604 7.7264 20.9997 7.29359 20.9991 6.85993C20.9991 3.11846 17.9629 0.0822754 14.2214 0.0822754C12.0471 0.0822754 10.0099 1.12046 8.73656 2.90303C8.10975 2.41328 7.34578 2.15865 6.54263 2.15865C4.56413 2.15865 2.93831 3.76487 2.93831 5.76296C2.93831 6.19393 3.01669 6.6249 3.15375 7.01668C1.27331 7.66309 0 9.46524 0 11.4632C0 13.4809 1.25372 15.2439 3.13416 15.9295C3.05588 16.3409 3.01669 16.7718 3.01669 17.2223C3.01669 20.9442 6.05288 23.9805 9.77475 23.9805C11.9687 23.9805 13.9864 22.9227 15.2596 21.1597C15.8864 21.6494 16.67 21.9237 17.4731 21.9237C19.4516 21.9237 21.0774 20.3174 21.0774 18.3194C21.0774 17.8884 20.9991 17.4574 20.862 17.0657C22.7033 16.3997 23.9962 14.5975 23.9962 12.5994H23.9963Z" fill="white"/>
<path d="M9.38297 10.3466L14.7307 12.7952L20.1372 8.05476C20.216 7.66134 20.2554 7.26105 20.2547 6.85982C20.2547 3.52982 17.5515 0.826538 14.2214 0.826538C12.2233 0.826538 10.3625 1.80594 9.2459 3.45135L8.34478 8.11354L9.38297 10.3466Z" fill="#F4BD19"/>
<path d="M3.83934 16.0079C3.76106 16.3996 3.72187 16.811 3.72187 17.2224C3.72187 20.5524 6.44465 23.2753 9.77475 23.2753C11.7924 23.2753 13.6534 22.2763 14.7894 20.6308L15.671 15.9687L14.476 13.6964L9.10875 11.2478L3.83934 16.0079Z" fill="#3CBEB1"/>
<path d="M3.80025 6.74236L7.46334 7.6043L8.286 3.43186C7.77675 3.04008 7.16944 2.84424 6.52303 2.84424C4.93631 2.84424 3.62391 4.13705 3.62391 5.74336C3.62391 6.07636 3.68278 6.42896 3.80025 6.74236Z" fill="#E9478C"/>
<path d="M3.48675 7.62378C1.84135 8.15272 0.705189 9.73944 0.705189 11.4632C0.705189 13.1479 1.74338 14.6562 3.3105 15.2439L8.46234 10.5817L7.52203 8.56419L3.48675 7.62378Z" fill="#2C458F"/>
<path d="M15.7298 20.6111C16.239 21.003 16.8463 21.2184 17.4731 21.2184C19.0598 21.2184 20.3723 19.9256 20.3723 18.3193C20.3723 17.9667 20.3135 17.6336 20.196 17.3202L16.5329 16.4584L15.7298 20.6111Z" fill="#95C63D"/>
<path d="M16.4741 15.4984L20.5094 16.4387C22.1548 15.8903 23.291 14.3232 23.291 12.5993C23.291 10.9146 22.2528 9.42594 20.6857 8.81873L15.3968 13.4416L16.4741 15.4984Z" fill="#176655"/>
</g>
</g>
<defs>
<clipPath id="clip0_998_164625">
<rect width="24" height="24" fill="white"/>
</clipPath>
<clipPath id="clip1_998_164625">
<rect width="24" height="24" fill="white"/>
</clipPath>
</defs>
</svg>
