<svg width="24" height="24" viewBox="0 0 24 24" fill="none" xmlns="http://www.w3.org/2000/svg">
<g clip-path="url(#clip0_998_164474)">
<mask id="mask0_998_164474" style="mask-type:luminance" maskUnits="userSpaceOnUse" x="0" y="0" width="24" height="24">
<path d="M24 0H0V24H24V0Z" fill="white"/>
</mask>
<g mask="url(#mask0_998_164474)">
<path d="M5.05732 15.1109C5.05732 16.5049 3.93115 17.6226 2.54559 17.6226C1.16003 17.6226 0.0254211 16.4964 0.0254211 15.1109C0.0254211 13.7253 1.15159 12.5991 2.53715 12.5991H5.04888V15.1109H5.05732Z" fill="#E01E5A"/>
<path d="M6.30942 15.111C6.30942 13.717 7.4356 12.5992 8.82115 12.5992C10.2067 12.5992 11.3329 13.7254 11.3329 15.111V21.3935C11.3329 22.7875 10.2067 23.9052 8.82115 23.9052C7.4356 23.9052 6.30942 22.7875 6.30942 21.3935V15.111Z" fill="#E01E5A"/>
<path d="M8.82942 5.0077C7.43538 5.0077 6.31769 3.88155 6.31769 2.49598C6.31769 1.11042 7.44382 -0.0157471 8.82942 -0.0157471C10.215 -0.0157471 11.3411 1.11042 11.3411 2.49598V5.0077H8.82942Z" fill="#36C5F0"/>
<path d="M8.8303 6.28149C10.2243 6.28149 11.342 7.40767 11.342 8.79323C11.342 10.1788 10.2159 11.305 8.8303 11.305H2.52251C1.12851 11.305 0.0107727 10.1788 0.0107727 8.79323C0.0107727 7.40767 1.13694 6.28149 2.52251 6.28149H8.8303Z" fill="#36C5F0"/>
<path d="M18.9032 8.79347C18.9032 7.39947 20.0294 6.28174 21.415 6.28174C22.8005 6.28174 23.9267 7.40792 23.9267 8.79347C23.9267 10.179 22.8005 11.3052 21.415 11.3052H18.9032V8.79347Z" fill="#2EB67D"/>
<path d="M17.65 8.79705C17.65 10.191 16.5238 11.3088 15.1383 11.3088C13.7527 11.3088 12.6266 10.1826 12.6266 8.79705V2.4977C12.6266 1.1037 13.7527 -0.0140381 15.1383 -0.0140381C16.5238 -0.0140381 17.65 1.1037 17.65 2.4977V8.79705Z" fill="#2EB67D"/>
<path d="M15.1278 18.8809C16.5218 18.8809 17.6396 20.007 17.6396 21.3926C17.6396 22.7781 16.5134 23.9043 15.1278 23.9043C13.7423 23.9043 12.6161 22.7781 12.6161 21.3926V18.8809H15.1278Z" fill="#ECB22E"/>
<path d="M15.128 17.6226C13.734 17.6226 12.6163 16.4964 12.6163 15.1109C12.6163 13.7253 13.7425 12.5991 15.128 12.5991H21.4358C22.8298 12.5991 23.9475 13.7253 23.9475 15.1109C23.9475 16.4964 22.8214 17.6226 21.4358 17.6226H15.128Z" fill="#ECB22E"/>
</g>
</g>
<defs>
<clipPath id="clip0_998_164474">
<rect width="24" height="24" fill="white"/>
</clipPath>
</defs>
</svg>
