<svg width="24" height="24" viewBox="0 0 24 24" fill="none" xmlns="http://www.w3.org/2000/svg">
<mask id="mask0_993_163841" style="mask-type:luminance" maskUnits="userSpaceOnUse" x="0" y="0" width="24" height="24">
<path d="M24 0H0V24H24V0Z" fill="white"/>
</mask>
<g mask="url(#mask0_993_163841)">
<path d="M12 8.53464C11.5638 8.53464 11.1374 8.40529 10.7747 8.16296C10.4121 7.92062 10.1294 7.57618 9.96247 7.17319C9.79554 6.7702 9.75187 6.32676 9.83696 5.89895C9.92206 5.47114 10.1321 5.07817 10.4405 4.76974C10.749 4.4613 11.1419 4.25125 11.5698 4.16616C11.9976 4.08106 12.441 4.12473 12.844 4.29166C13.247 4.45858 13.5914 4.74126 13.8338 5.10394C14.0761 5.46662 14.2054 5.89302 14.2054 6.32921C14.2054 6.91413 13.9731 7.47508 13.5595 7.88868C13.1459 8.30228 12.5849 8.53464 12 8.53464ZM12 5.53464C11.8156 5.53499 11.6371 5.59925 11.4948 5.71646C11.3524 5.83368 11.2552 5.99661 11.2195 6.1775C11.1838 6.35839 11.2119 6.54606 11.2991 6.70855C11.3862 6.87103 11.527 6.99828 11.6974 7.06862C11.8678 7.13897 12.0574 7.14806 12.2338 7.09434C12.4101 7.04063 12.5625 6.92744 12.6647 6.77404C12.767 6.62064 12.813 6.43652 12.7948 6.25304C12.7766 6.06957 12.6953 5.89808 12.5649 5.76778C12.4907 5.69372 12.4026 5.635 12.3056 5.595C12.2087 5.55499 12.1049 5.53448 12 5.53464Z" fill="#226DB4"/>
<path d="M7.24715 24.0001C6.87649 24.0005 6.51227 23.9032 6.19115 23.7181L1.19057 20.833C0.87045 20.6469 0.604706 20.3802 0.419862 20.0594C0.235018 19.7386 0.137537 19.3749 0.137146 19.0047V13.2327C0.137668 12.8622 0.235188 12.4984 0.420005 12.1773C0.604821 11.8562 0.870489 11.5892 1.19057 11.4027L5.24486 9.06525C5.32509 9.017 5.41413 8.98523 5.50678 8.97178C5.59943 8.95834 5.69382 8.96349 5.78446 8.98694C5.87509 9.01039 5.96015 9.05167 6.03465 9.10836C6.10915 9.16505 6.1716 9.23603 6.21836 9.31713C6.26512 9.39824 6.29525 9.48785 6.30699 9.58073C6.31872 9.67361 6.31183 9.7679 6.28671 9.85808C6.26159 9.94827 6.21876 10.0325 6.1607 10.106C6.10264 10.1794 6.03053 10.2406 5.94858 10.2858L1.89686 12.6233C1.7898 12.685 1.70088 12.7738 1.63904 12.8808C1.5772 12.9877 1.54462 13.1091 1.54457 13.2327V19.0021C1.54473 19.1258 1.57735 19.2472 1.63917 19.3543C1.70099 19.4614 1.78985 19.5504 1.89686 19.6124L6.89486 22.5018C7.00212 22.5628 7.12336 22.5948 7.24672 22.5948C7.37008 22.5948 7.49132 22.5628 7.59857 22.5018L11.6477 20.1593C11.8089 20.0741 11.9969 20.0548 12.172 20.1053C12.3472 20.1558 12.496 20.2722 12.5871 20.4302C12.6782 20.5881 12.7045 20.7751 12.6606 20.9521C12.6166 21.129 12.5058 21.282 12.3514 21.379L8.30486 23.7155C7.98388 23.9028 7.61875 24.001 7.24715 24.0001Z" fill="#E42527"/>
<path d="M16.7537 24C16.383 24.0004 16.0188 23.9031 15.6977 23.718L11.6434 21.3763C11.489 21.2793 11.3782 21.1263 11.3343 20.9494C11.2903 20.7724 11.3167 20.5854 11.4078 20.4275C11.4989 20.2695 11.6476 20.1531 11.8228 20.1026C11.998 20.0521 12.1859 20.0714 12.3471 20.1566L16.4014 22.5017C16.5087 22.5626 16.6299 22.5947 16.7533 22.5947C16.8766 22.5947 16.9979 22.5626 17.1051 22.5017L22.1031 19.6157C22.2101 19.5537 22.299 19.4647 22.3608 19.3576C22.4226 19.2505 22.4553 19.1291 22.4554 19.0054V13.2326C22.4554 13.109 22.4228 12.9876 22.3609 12.8806C22.2991 12.7736 22.2102 12.6848 22.1031 12.6231L18.0557 10.2866C17.9737 10.2413 17.9016 10.1802 17.8436 10.1067C17.7855 10.0333 17.7427 9.949 17.7176 9.85882C17.6924 9.76863 17.6855 9.67434 17.6973 9.58146C17.709 9.48858 17.7391 9.39897 17.7859 9.31786C17.8327 9.23676 17.8951 9.16579 17.9696 9.10909C18.0441 9.0524 18.1292 9.01112 18.2198 8.98767C18.3104 8.96422 18.4048 8.95907 18.4975 8.97252C18.5901 8.98596 18.6792 9.01774 18.7594 9.06598L22.8068 11.4034C23.1278 11.5891 23.3943 11.856 23.5797 12.1771C23.765 12.4983 23.8627 12.8626 23.8628 13.2334V19.0046C23.8622 19.3751 23.7643 19.7389 23.579 20.0597C23.3937 20.3806 23.1274 20.6471 22.8068 20.8328L17.8088 23.7188C17.4873 23.9028 17.1233 24 16.7528 24.0008" fill="#F9B21D"/>
<path d="M5.59629 10.3824C5.50385 10.3826 5.41229 10.3644 5.32686 10.3291C5.24143 10.2938 5.16381 10.242 5.09844 10.1766C5.03307 10.1112 4.98124 10.0336 4.94592 9.94817C4.91059 9.86274 4.89247 9.77118 4.89258 9.67873V4.99531C4.89372 4.62548 4.99184 4.26242 5.17713 3.94236C5.36243 3.62231 5.62843 3.35644 5.94858 3.17131L10.9466 0.281877C11.2678 0.0975039 11.6318 0.000488281 12.0021 0.000488281C12.3725 0.000488281 12.7365 0.0975039 13.0577 0.281877L18.0549 3.17131C18.3745 3.35674 18.6399 3.62276 18.8246 3.94282C19.0093 4.26288 19.1068 4.62578 19.1074 4.99531V9.67616C19.1074 9.86291 19.0332 10.042 18.9012 10.1741C18.7691 10.3061 18.59 10.3803 18.4033 10.3803C18.2165 10.3803 18.0374 10.3061 17.9054 10.1741C17.7733 10.042 17.6991 9.86291 17.6991 9.67616V4.99531C17.6991 4.87184 17.6666 4.75055 17.6049 4.64359C17.5433 4.53663 17.4546 4.44776 17.3477 4.38588L12.354 1.49902C12.2468 1.43808 12.1255 1.40605 12.0021 1.40605C11.8788 1.40605 11.7575 1.43808 11.6503 1.49902L6.65229 4.38588C6.54524 4.44759 6.45631 4.5364 6.39447 4.64338C6.33263 4.75036 6.30005 4.87174 6.30001 4.99531V9.67873C6.29978 9.8653 6.22557 10.0442 6.09364 10.1761C5.96172 10.308 5.78286 10.3822 5.59629 10.3824Z" fill="#089949"/>
<path d="M10.3483 15.023C10.2247 15.0229 10.1033 14.9908 9.99597 14.9296L5.9494 12.5922C5.62799 12.4061 5.3612 12.1387 5.17584 11.8169C4.99047 11.4951 4.89307 11.1302 4.8934 10.7588V9.67533C4.8934 9.4887 4.96754 9.3097 5.09952 9.17773C5.23149 9.04576 5.41048 8.97162 5.59712 8.97162C5.78375 8.97162 5.96275 9.04576 6.09472 9.17773C6.22669 9.3097 6.30083 9.4887 6.30083 9.67533V10.7588C6.30116 10.8824 6.33385 11.0038 6.39566 11.1108C6.45746 11.2179 6.54623 11.3069 6.65312 11.369L10.7014 13.7082C10.7816 13.7543 10.8519 13.8157 10.9083 13.8891C10.9647 13.9624 11.006 14.0462 11.0299 14.1356C11.0538 14.225 11.0598 14.3182 11.0476 14.4099C11.0353 14.5016 11.0051 14.5899 10.9585 14.6699C10.8973 14.7771 10.8085 14.8661 10.7013 14.9275C10.5942 14.989 10.4726 15.0208 10.3491 15.0196M13.6525 15.0196C13.4973 15.02 13.3463 14.9691 13.223 14.8748C13.0998 14.7805 13.0111 14.6481 12.9709 14.4981C12.9307 14.3482 12.9412 14.1892 13.0008 14.0459C13.0604 13.9025 13.1656 13.7829 13.3003 13.7056L17.352 11.3665C17.459 11.3045 17.5478 11.2155 17.6097 11.1084C17.6715 11.0013 17.7041 10.8799 17.7043 10.7562V9.67533C17.7043 9.48858 17.7784 9.30948 17.9105 9.17743C18.0426 9.04538 18.2217 8.97119 18.4084 8.97119C18.5952 8.97119 18.7743 9.04538 18.9063 9.17743C19.0384 9.30948 19.1125 9.48858 19.1125 9.67533V10.7639C19.1121 11.1347 19.0143 11.4988 18.829 11.82C18.6437 12.1411 18.3773 12.408 18.0565 12.5939L14.0048 14.9305C13.8974 14.9915 13.7761 15.0237 13.6525 15.0239" fill="#226DB4"/>
<path d="M11.9965 12.1698C11.8413 12.1702 11.6903 12.1193 11.567 12.025C11.4437 11.9307 11.3551 11.7982 11.3149 11.6483C11.2747 11.4984 11.2852 11.3394 11.3448 11.196C11.4043 11.0527 11.5096 10.9331 11.6442 10.8558L15.6942 8.51921C16.0155 8.33443 16.3796 8.23718 16.7502 8.23718C17.1209 8.23718 17.485 8.33443 17.8062 8.51921L18.756 9.06778C18.8397 9.11203 18.9137 9.17272 18.9735 9.24622C19.0333 9.31972 19.0776 9.40452 19.1039 9.49555C19.1301 9.58658 19.1377 9.68197 19.1263 9.77601C19.1148 9.87006 19.0845 9.96082 19.0372 10.0429C18.9898 10.1249 18.9264 10.1966 18.8507 10.2536C18.775 10.3106 18.6887 10.3517 18.5967 10.3746C18.5048 10.3974 18.4092 10.4015 18.3156 10.3865C18.2221 10.3715 18.1325 10.3379 18.0522 10.2875L17.1025 9.73893C16.9954 9.67766 16.8741 9.64543 16.7507 9.64543C16.6272 9.64543 16.506 9.67766 16.3988 9.73893L12.3488 12.0755C12.2419 12.1376 12.1202 12.1707 11.9965 12.1698ZM11.9965 21.4706C11.873 21.4705 11.7516 21.4383 11.6442 21.3772L10.7014 20.8321C10.3811 20.6462 10.115 20.3798 9.92977 20.0591C9.7445 19.7385 9.64645 19.3749 9.64539 19.0046V14.3169C9.64539 14.1302 9.71957 13.9511 9.85162 13.819C9.98368 13.687 10.1628 13.6128 10.3495 13.6128C10.5363 13.6128 10.7154 13.687 10.8474 13.819C10.9795 13.9511 11.0537 14.1302 11.0537 14.3169V19.0029C11.0538 19.1265 11.0864 19.2478 11.1483 19.3548C11.2101 19.4618 11.299 19.5506 11.406 19.6124L12.3488 20.1575C12.4834 20.2348 12.5887 20.3544 12.6483 20.4977C12.7078 20.6411 12.7183 20.8001 12.6782 20.95C12.638 21.0999 12.5493 21.2324 12.426 21.3267C12.3028 21.421 12.1517 21.4711 11.9965 21.4706Z" fill="#226DB4"/>
<path d="M12 21.4741C11.8437 21.4752 11.6914 21.4244 11.5672 21.3295C11.443 21.2346 11.3538 21.1012 11.3138 20.9501C11.2737 20.799 11.285 20.6389 11.3459 20.4949C11.4069 20.351 11.5139 20.2314 11.6503 20.1549L12.5983 19.6089C12.7053 19.547 12.7942 19.458 12.8561 19.3509C12.9179 19.2438 12.9505 19.1223 12.9506 18.9986V14.3178C12.9506 14.131 13.0247 13.9519 13.1568 13.8199C13.2888 13.6878 13.4679 13.6136 13.6547 13.6136C13.8415 13.6136 14.0206 13.6878 14.1526 13.8199C14.2847 13.9519 14.3588 14.131 14.3588 14.3178V19.0029C14.3585 19.3735 14.2607 19.7374 14.0754 20.0583C13.89 20.3792 13.6236 20.6457 13.3028 20.8312L12.3548 21.3798C12.2477 21.4414 12.1262 21.4739 12.0026 21.4741M12.0026 12.1706C11.879 12.1705 11.7577 12.1383 11.6503 12.0772L7.5977 9.73807C7.49056 9.67681 7.36927 9.64458 7.24584 9.64458C7.12242 9.64458 7.00113 9.67681 6.89399 9.73807L5.95113 10.2841C5.78993 10.3692 5.60199 10.3886 5.42682 10.3381C5.25165 10.2875 5.10288 10.1711 5.01177 10.0132C4.92066 9.85526 4.89431 9.66818 4.93826 9.49125C4.9822 9.31431 5.09301 9.1613 5.24742 9.06436L6.19027 8.51836C6.51154 8.33358 6.87566 8.23633 7.24627 8.23633C7.61689 8.23633 7.98101 8.33358 8.30227 8.51836L12.3523 10.8601C12.4869 10.9371 12.5923 11.0565 12.6519 11.1997C12.7116 11.3429 12.7221 11.5018 12.6818 11.6516C12.6416 11.8014 12.5529 11.9337 12.4295 12.0278C12.3061 12.1218 12.1551 12.1724 12 12.1715" fill="#226DB4"/>
</g>
</svg>
