<svg width="24" height="24" viewBox="0 0 24 24" fill="none" xmlns="http://www.w3.org/2000/svg">
<g clip-path="url(#clip0_998_164566)">
<g clip-path="url(#clip1_998_164566)">
<path d="M0.775005 12.675C6.934 18.877 3.641 15.558 12.021 24C29.617 6.281 12.749 23.217 23.221 12.67C23.3092 12.582 23.3792 12.4775 23.4269 12.3625C23.4747 12.2474 23.4992 12.1241 23.4992 11.9995C23.4992 11.8749 23.4747 11.7516 23.4269 11.6365C23.3792 11.5215 23.3092 11.417 23.221 11.329C19.841 7.921 15.365 3.366 12.021 0C4.345 7.73 0.775005 11.33 0.775005 11.33C0.598806 11.5095 0.500092 11.751 0.500092 12.0025C0.500092 12.254 0.598806 12.4955 0.775005 12.675ZM12.02 8.452L15.546 12L12.021 15.548L8.495 12L12.02 8.452Z" fill="#2580F8"/>
</g>
</g>
<defs>
<clipPath id="clip0_998_164566">
<rect width="24" height="24" fill="white"/>
</clipPath>
<clipPath id="clip1_998_164566">
<rect width="24" height="24" fill="white"/>
</clipPath>
</defs>
</svg>
