<svg width="24" height="24" viewBox="0 0 24 24" fill="none" xmlns="http://www.w3.org/2000/svg">
<g clip-path="url(#clip0_998_164500)">
<g clip-path="url(#clip1_998_164500)">
<path d="M0.179993 6.04524C0.179993 2.77562 2.8346 0.119995 6.10523 0.119995H17.9548C21.2254 0.119995 23.88 2.77461 23.88 6.04524V17.8948C23.88 21.1654 21.2254 23.82 17.9548 23.82H6.10523C2.8346 23.82 0.179993 21.1654 0.179993 17.8948V6.04524Z" fill="#FFDD33"/>
<path fill-rule="evenodd" clip-rule="evenodd" d="M15.9344 4.64099H13.7844L15.5777 7.79105L11.6343 4.64099H9.48431L11.456 8.48813L7.33427 4.64099H5.18423L7.33427 9.54191L5.18423 19.3427H7.33427L11.456 8.8438L9.48431 19.3427H11.6343L15.5777 8.14162L13.7844 19.3427H15.9344L19.8778 7.09397L15.9344 4.64606V4.64099Z" fill="#1C1C1E"/>
</g>
</g>
<defs>
<clipPath id="clip0_998_164500">
<rect width="24" height="24" fill="white"/>
</clipPath>
<clipPath id="clip1_998_164500">
<rect width="24" height="24" fill="white"/>
</clipPath>
</defs>
</svg>
