<svg width="24" height="24" viewBox="0 0 24 24" fill="none" xmlns="http://www.w3.org/2000/svg">
<g clip-path="url(#clip0_998_164577)">
<path d="M22.937 0H11.41C11.41 1.37992 11.9582 2.70332 12.9339 3.67908C13.9097 4.65483 15.2331 5.203 16.613 5.203H18.737V7.253C18.7378 8.63188 19.2859 9.95406 20.2609 10.9291C21.2359 11.9041 22.5581 12.4522 23.937 12.453V1C23.937 0.734784 23.8316 0.48043 23.6441 0.292893C23.4566 0.105357 23.2022 0 22.937 0Z" fill="#2684FF"/>
<path d="M17.233 5.74304H5.707C5.7078 7.12192 6.25591 8.4441 7.23092 9.41912C8.20594 10.3941 9.52812 10.9422 10.907 10.943H13.03V13C13.0316 14.3789 13.5805 15.7008 14.556 16.6752C15.5316 17.6497 16.8541 18.197 18.233 18.197V6.74304C18.233 6.47783 18.1276 6.22347 17.9401 6.03593C17.7526 5.8484 17.4982 5.74304 17.233 5.74304Z" fill="url(#paint0_linear_998_164577)"/>
<path d="M11.527 11.483H9.6107e-08C-0.000131242 12.1664 0.134352 12.8431 0.395768 13.4744C0.657185 14.1058 1.04041 14.6795 1.52357 15.1628C2.00673 15.646 2.58034 16.0293 3.21167 16.2909C3.84299 16.5524 4.51965 16.687 5.203 16.687H7.333V18.737C7.33379 20.1149 7.88108 21.4361 8.8548 22.411C9.82852 23.3858 11.1492 23.9346 12.527 23.937V12.483C12.527 12.2178 12.4216 11.9635 12.2341 11.7759C12.0466 11.5884 11.7922 11.483 11.527 11.483Z" fill="url(#paint1_linear_998_164577)"/>
</g>
<defs>
<linearGradient id="paint0_linear_998_164577" x1="15.443" y1="3.32604" x2="10.57" y2="8.41104" gradientUnits="userSpaceOnUse">
<stop offset="0.18" stop-color="#0052CC"/>
<stop offset="1" stop-color="#2684FF"/>
</linearGradient>
<linearGradient id="paint1_linear_998_164577" x1="364.829" y1="337.939" x2="155.455" y2="545.146" gradientUnits="userSpaceOnUse">
<stop offset="0.18" stop-color="#0052CC"/>
<stop offset="1" stop-color="#2684FF"/>
</linearGradient>
<clipPath id="clip0_998_164577">
<rect width="24" height="24" fill="white"/>
</clipPath>
</defs>
</svg>
