<svg width="24" height="24" viewBox="0 0 24 24" fill="none" xmlns="http://www.w3.org/2000/svg">
<g clip-path="url(#clip0_998_164595)">
<g clip-path="url(#clip1_998_164595)">
<path d="M2.13014 5.9288L5.56382 0.00216835L19.3917 0.000366211L22.8067 5.98586L22.811 17.9592L19.3922 23.9412L5.56862 23.946L2.0953 17.9598L2.13014 5.9288Z" fill="#4D4D4D"/>
<path d="M2.0959 17.958H8.3277L4.90484 11.9262L7.68854 5.92992L2.13074 5.92871L-1.35099 11.9749" fill="#EDEDED"/>
<path d="M10.2175 17.9581H14.7727L18.8006 12.0873L14.843 5.98645H9.48468L6.25704 11.8819L10.2175 17.9581Z" fill="#E0E0E0"/>
<path d="M-1.35099 11.9744L2.0959 17.9598H8.3283L4.94268 11.9948L-1.35099 11.9744Z" fill="#ACACAC"/>
<path d="M6.32253 11.9755L10.2181 17.9597H14.7727L18.7375 11.9779L6.32253 11.9755Z" fill="#9E9E9E"/>
<path d="M7.86515 11.9785L6.68955 12.3209L5.56141 11.9779L10.1671 3.99438L11.3192 5.98756" fill="#00B8E3"/>
<path d="M11.3144 17.958L10.1683 19.9596L7.10885 16.6634L5.55902 11.9797V11.9773H7.86455" fill="#33C6E9"/>
<path d="M5.56201 11.9779H5.55961V11.9797L4.40804 13.9753L3.25167 11.9887L4.42427 9.95468L7.86515 3.99561H10.1683" fill="#008AAA"/>
<path d="M18.2346 17.9581H25.2102L25.2059 5.98584H18.2346V17.9581Z" fill="#D4D4D4"/>
<path d="M18.2346 11.9941V17.9591H25.1975V11.9941H18.2346Z" fill="#919191"/>
<path d="M10.1695 19.962H7.86455L4.40804 13.9747L5.55961 11.9803L10.1695 19.962Z" fill="#00B8E3"/>
<path d="M19.385 11.9779L14.7781 19.9602C14.3547 19.3378 13.629 17.9597 13.629 17.9597L17.0848 11.9767L19.385 11.9779Z" fill="#008AAA"/>
<path d="M17.0789 19.9602L14.7781 19.9595L19.3856 11.9773L20.5365 9.98412L21.6912 11.9905M19.385 11.9779H17.0855L13.6284 5.98698L14.7727 3.99622L17.5709 7.55364L19.385 11.9779Z" fill="#00B8E3"/>
<path d="M20.5365 9.98294V9.98473L19.385 11.9779L14.7734 3.99683L17.0807 3.99802L20.5365 9.98294Z" fill="#33C6E9"/>
</g>
</g>
<defs>
<clipPath id="clip0_998_164595">
<rect width="24" height="24" fill="white"/>
</clipPath>
<clipPath id="clip1_998_164595">
<rect width="26.702" height="24" fill="white" transform="translate(-1.35099)"/>
</clipPath>
</defs>
</svg>
