<svg width="24" height="24" viewBox="0 0 24 24" fill="none" xmlns="http://www.w3.org/2000/svg">
<g clip-path="url(#clip0_40_351)">
<path fill-rule="evenodd" clip-rule="evenodd" d="M1.95001 17.835C1.95001 17.835 4.95001 21.7238 5.13001 21.8963C5.56501 22.3125 6.15376 22.53 6.75376 22.4963C9.89251 22.3388 17.0813 21.9788 20.0925 21.8288C21.2588 21.7688 22.1738 20.8088 22.1775 19.6425L22.215 6.33004C22.215 5.58379 21.8288 4.89379 21.195 4.50379C20.0738 3.81379 17.8538 2.44504 17.1825 1.99879C16.635 1.63504 15.9825 1.46254 15.3225 1.50379C13.0875 1.64629 6.52876 2.07004 3.75376 2.24629C2.64376 2.31754 1.78876 3.22879 1.78876 4.32379V17.3663C1.78876 17.535 1.84501 17.7 1.95001 17.8313V17.835ZM20.7038 6.99379V7.00129L20.6663 19.6388C20.6663 20.0025 20.3775 20.3025 20.0138 20.3213L6.67501 20.9888C6.48751 21 6.30376 20.9288 6.16876 20.8013C6.03376 20.6738 5.95501 20.4938 5.95501 20.3063V7.76629C5.95501 7.40254 6.23626 7.10254 6.60001 7.08379L19.9763 6.31129C20.1638 6.30004 20.3475 6.36754 20.4863 6.49879C20.6213 6.62629 20.7 6.80629 20.7 6.99379H20.7038ZM16.2113 15.0263V9.88129C15.975 9.61129 15.6 9.63004 15.06 9.46504C15.0225 9.45379 14.9888 9.42379 14.9738 9.38629C14.9588 9.34879 14.9625 9.30379 14.985 9.27004C15.63 8.32129 17.4713 8.91379 18.6713 8.53504C18.705 8.52379 18.7463 8.52754 18.7763 8.55379C18.8063 8.58004 18.8175 8.61754 18.81 8.65504C18.6938 9.17629 18.285 9.44254 17.7038 9.55504V18.0188C17.7038 18.3 17.535 18.5588 17.2725 18.6638C17.0325 18.7613 16.7813 18.8663 16.7813 18.8663C16.2038 19.1663 15.495 18.975 15.1425 18.4275L10.845 11.7263V17.8275C11.0775 18.0975 11.4563 18.0788 11.9963 18.2438C12.0338 18.255 12.0675 18.285 12.0825 18.3225C12.0975 18.36 12.0938 18.405 12.0713 18.4388C11.4225 19.3875 9.58501 18.795 8.38501 19.1738C8.35126 19.1888 8.31001 19.1813 8.28001 19.155C8.25001 19.1325 8.23876 19.0913 8.24626 19.0538C8.36251 18.5325 8.77126 18.2663 9.35251 18.1538V10.1625L8.22001 10.0538C8.22001 10.0538 8.29876 9.13504 9.37876 9.03004C9.91126 8.97754 11.3025 8.91754 11.805 8.89504C11.9175 8.89129 12.0263 8.94379 12.0938 9.03754L16.215 15.0188L16.2113 15.0263ZM5.63626 5.35504C5.84251 5.51254 6.10126 5.59129 6.36001 5.57629C8.26876 5.46754 16.4175 5.00254 18.4388 4.88629C18.5025 4.88254 18.555 4.83754 18.57 4.77754C18.585 4.71754 18.5588 4.65379 18.5063 4.62004C17.61 4.06129 16.7288 3.51379 16.3463 3.25879C16.0725 3.07879 15.7463 2.99254 15.4163 3.01129C15.4163 3.01129 6.15376 3.52129 4.24876 3.72754C4.00876 3.75379 3.95626 3.84004 3.94876 3.87379C3.91501 3.99004 3.95626 4.07629 4.05001 4.15129C4.43251 4.44379 5.20126 5.02504 5.63626 5.35504Z" fill="#070707"/>
</g>
<defs>
<clipPath id="clip0_40_351">
<rect width="24" height="24" fill="white"/>
</clipPath>
</defs>
</svg>
