<svg width="24" height="24" viewBox="0 0 24 24" fill="none" xmlns="http://www.w3.org/2000/svg">
<g clip-path="url(#clip0_40_344)">
<path d="M4.11572 18.851H7.02891V11.7882L2.86237 8.68872V17.6146C2.86237 18.2921 3.42129 18.851 4.11572 18.851Z" fill="#4285F4"/>
<path d="M16.988 18.851H19.9012C20.5956 18.851 21.1545 18.2921 21.1545 17.5977V8.68872L17.0049 11.8052V18.851H16.988Z" fill="#34A853"/>
<path d="M16.988 6.40221V11.8052L21.1376 8.68874V7.02889C21.1376 5.48761 19.3761 4.60687 18.1397 5.53842L16.988 6.40221Z" fill="#FBBC04"/>
<path fill-rule="evenodd" clip-rule="evenodd" d="M7.01202 11.7882V6.40222L11.9916 10.1453L16.9711 6.40222V11.8052L12.0085 15.5314L7.01202 11.7882Z" fill="#EA4335"/>
<path d="M2.86237 7.01203V8.67188L7.01198 11.7883V6.40229L5.84331 5.52156C4.62383 4.60695 2.86237 5.48768 2.86237 7.01203Z" fill="#C5221F"/>
</g>
<defs>
<clipPath id="clip0_40_344">
<rect width="24" height="24" fill="white"/>
</clipPath>
</defs>
</svg>
