<svg width="24" height="24" viewBox="0 0 24 24" fill="none" xmlns="http://www.w3.org/2000/svg">
<g clip-path="url(#clip0_998_164680)">
<g clip-path="url(#clip1_998_164680)">
<path d="M12.007 23.0681L16.423 9.47717H7.59094L12.007 23.0681Z" fill="#E24329"/>
<path d="M12.007 23.068L7.59094 9.47705H1.40212L12.007 23.068Z" fill="#FC6D26"/>
<path d="M1.40213 9.47705L0.0601884 13.6073C0.000521712 13.7909 0.000513481 13.9887 0.0601649 14.1723C0.119816 14.3559 0.236065 14.516 0.392251 14.6295L12.007 23.0681L1.40203 9.47715L1.40213 9.47705Z" fill="#FCA326"/>
<path d="M1.40212 9.47713H7.59094L4.93134 1.29134C4.79447 0.870124 4.19859 0.870218 4.06181 1.29134L1.40212 9.47713Z" fill="#E24329"/>
<path d="M12.007 23.068L16.423 9.47705H22.6119L12.007 23.068Z" fill="#FC6D26"/>
<path d="M22.6119 9.47705L23.9539 13.6073C24.0135 13.7909 24.0135 13.9887 23.9539 14.1723C23.8942 14.356 23.7779 14.516 23.6217 14.6295L12.007 23.0681L22.6119 9.47715V9.47705Z" fill="#FCA326"/>
<path d="M22.6119 9.47713H16.423L19.0827 1.29134C19.2196 0.870124 19.8155 0.870218 19.9523 1.29134L22.6119 9.47713Z" fill="#E24329"/>
</g>
</g>
<defs>
<clipPath id="clip0_998_164680">
<rect width="24" height="24" fill="white"/>
</clipPath>
<clipPath id="clip1_998_164680">
<rect width="24" height="22.128" fill="white" transform="translate(0 0.936035)"/>
</clipPath>
</defs>
</svg>
