<svg width="24" height="24" viewBox="0 0 24 24" fill="none" xmlns="http://www.w3.org/2000/svg">
<g clip-path="url(#clip0_998_164521)">
<g clip-path="url(#clip1_998_164521)">
<path d="M6.16701 18.8221L6.15601 18.8071L6.15401 18.8051L6.16701 18.8221Z" fill="black"/>
<path d="M5.159 17.356C5.73 18.386 6.212 18.894 6.624 19.358C5.923 21.36 6.73 23.042 6.73 23.042C8.873 23.127 10.273 22.105 10.57 21.871C10.714 21.905 11.791 22.316 13.201 22.361H14.071C15.068 23.809 16.851 24.001 16.851 24.001C17.582 23.217 18.121 22.294 18.188 20.934C20.018 19.556 20.123 18.913 20.373 18.656C21.795 18.741 22.792 17.762 22.792 17.762C22.726 17.337 22.513 16.232 21.478 15.356C21.478 13.066 21.541 12.035 19.44 9.86C18.393 8.926 17.454 8.652 16.237 8.411C10.771 7.558 8.556 15.047 13.245 16.522C14.032 16.77 14.754 16.608 14.855 16.608C16.569 16.043 15.834 15.626 15.573 15.735L15.575 15.734C15.296 16.014 14.195 15.989 14.36 15.989H14.282C14.26 15.989 14.218 15.989 14.197 15.968C10.639 15.312 11.8 10.368 14.793 10.368C18.392 10.368 20.132 14.299 17.975 17.183C16.174 19.637 13.268 19.27 13.794 19.27C6.181 19.27 5.235 8.183 11.162 5.793C11.874 5.444 12.673 5.29 12.774 5.238C12.787 5.238 13.833 5.069 13.833 5.069C13.934 5.069 14.05 5.081 14.151 5.048C14.349 5.077 16.191 4.832 18.197 5.865C19.062 6.291 19.873 6.927 19.922 7.028C19.943 7.049 19.986 7.071 20.007 7.113C20.047 7.14 20.307 7.385 20.346 7.411C20.517 7.666 21.08 8.01 21.938 9.646C21.95 9.658 22.023 9.836 22.066 9.88C22.677 11.138 22.512 11.662 22.83 11.669C23.079 11.669 23.005 11.324 22.957 10.625H22.961C22.697 8.131 21.754 6.679 20.351 5.131C20.691 3.789 19.947 2.618 19.947 2.618C18.653 2.533 17.847 3.023 17.55 3.236C16.825 2.881 15.392 2.554 15.153 2.554C14.601 0.766 12.988 0 12.988 0C11.093 1.225 10.81 2.775 10.76 2.875C10.294 2.968 9.015 3.503 8.082 4.171L8.108 4.153C8.065 4.132 8.044 4.11 8.044 4.11C5.561 3.152 3.355 4.302 3.355 4.302C3.164 6.963 4.353 8.624 4.586 8.922C4.055 10.337 4.028 11.319 3.97 11.542C1.679 12.671 1 15.013 1 15.013C2.91 17.228 5.159 17.356 5.159 17.356Z" fill="url(#paint0_linear_998_164521)"/>
<path d="M11.426 15.254L11.423 15.249L11.419 15.245L11.426 15.254ZM20.705 11.281L20.715 11.3L20.721 11.309L20.705 11.281Z" fill="black"/>
</g>
</g>
<defs>
<linearGradient id="paint0_linear_998_164521" x1="12.003" y1="21.167" x2="12.003" y2="2.167" gradientUnits="userSpaceOnUse">
<stop stop-color="#F9C800"/>
<stop offset="1" stop-color="#EB5C10"/>
</linearGradient>
<clipPath id="clip0_998_164521">
<rect width="24" height="24" fill="white"/>
</clipPath>
<clipPath id="clip1_998_164521">
<rect width="24" height="24" fill="white"/>
</clipPath>
</defs>
</svg>
