<svg width="24" height="24" viewBox="0 0 24 24" fill="none" xmlns="http://www.w3.org/2000/svg">
<g clip-path="url(#clip0_3126_192679)">
<path d="M2.36603 4.21463C2.36603 1.88693 4.25295 0 6.58066 0H16.8831C19.2108 0 21.0977 1.88693 21.0977 4.21463V8.66341C21.0977 10.9911 19.2108 12.878 16.8831 12.878H6.58066C4.25295 12.878 2.36603 10.9911 2.36603 8.66341V4.21463Z" fill="#BBE2FF"/>
<path d="M0.590442 6.05725C0.290588 3.77842 2.06454 1.75598 4.36283 1.75598H19.1009C21.3993 1.75598 23.1731 3.77842 22.8733 6.05725L21.9758 12.8779L22.8733 19.6986C23.1731 21.9774 21.3993 23.9999 19.1009 23.9999H4.36283C2.06439 23.9999 0.290588 21.9774 0.590442 19.6986L1.48795 12.8779L0.590442 6.05725Z" fill="#3C90FF"/>
<path d="M8.71038 18.3418C8.0975 18.3418 7.5718 18.2421 7.13326 18.0428C6.69472 17.8435 6.3235 17.5769 6.0196 17.2431C5.72058 16.9041 5.50877 16.5728 5.38419 16.249C5.2596 15.9252 5.2098 15.7283 5.23477 15.6585C5.26194 15.5867 5.31534 15.5279 5.38419 15.494L6.21394 15.1652C6.2836 15.1303 6.35336 15.1254 6.42321 15.1502C6.49287 15.1701 6.57506 15.2847 6.6698 15.494C6.7695 15.7033 6.90902 15.925 7.08833 16.1593C7.26774 16.3844 7.49168 16.5702 7.74614 16.7048C8.00038 16.8344 8.31428 16.8992 8.68784 16.8992C9.29077 16.8992 9.76916 16.7248 10.123 16.376C10.4817 16.0272 10.6611 15.5838 10.6611 15.0456C10.6611 14.4626 10.4717 14.0141 10.093 13.7001C9.71438 13.3812 9.2136 13.2218 8.59067 13.2218H7.80599C7.73399 13.223 7.66432 13.1962 7.61165 13.1471C7.56189 13.0923 7.53697 13.03 7.53687 12.9602V12.1605C7.53687 12.0857 7.56175 12.0234 7.6115 11.9736C7.6366 11.9474 7.6668 11.9265 7.70025 11.9124C7.73369 11.8982 7.76968 11.8911 7.80599 11.8914H8.48604C9.04419 11.8914 9.49267 11.7394 9.8315 11.4354C10.1703 11.1314 10.3397 10.7377 10.3397 10.2544C10.3397 9.77614 10.1877 9.39 9.88375 9.09595C9.57975 8.8019 9.16121 8.65487 8.62814 8.65487C8.32911 8.65487 8.06999 8.70473 7.85077 8.80443C7.63396 8.90223 7.44034 9.04488 7.28267 9.22297C7.12684 9.39261 6.98908 9.578 6.8716 9.77614C6.75706 9.96551 6.66487 10.0701 6.59502 10.09C6.52536 10.105 6.45809 10.0925 6.39321 10.0527L5.60838 9.67151C5.5436 9.63658 5.50126 9.58175 5.48136 9.50702C5.46145 9.43229 5.52126 9.2579 5.66077 8.98385C5.80526 8.70482 6.02448 8.42078 6.31843 8.1317C6.61337 7.84015 6.96427 7.61131 7.34999 7.45897C7.74365 7.29946 8.20209 7.21975 8.72531 7.21985C9.69702 7.21985 10.4669 7.47643 11.0349 7.98961C11.603 8.4979 11.887 9.17063 11.887 10.0078C11.887 10.5858 11.7475 11.0866 11.4685 11.5101C11.1943 11.9336 10.8056 12.2326 10.3024 12.4072V12.4371C10.9103 12.6164 11.3887 12.9452 11.7375 13.4236C12.0913 13.897 12.2682 14.4626 12.2681 15.1202C12.2681 16.0621 11.9392 16.8345 11.2815 17.4374C10.6239 18.0403 9.76682 18.3418 8.71024 18.3418H8.71038ZM16.2104 18.1698C16.1257 18.1698 16.0509 18.1375 15.986 18.0727C15.9271 18.0101 15.8949 17.927 15.8965 17.841V9.52941L14.2147 10.7402C14.1548 10.7851 14.085 10.8001 14.0053 10.7852C13.9335 10.772 13.8693 10.7319 13.826 10.6731L13.3402 9.98526C13.2964 9.92485 13.2777 9.84989 13.2878 9.77599C13.3027 9.69639 13.3426 9.63414 13.4074 9.58926L16.3896 7.45897C16.4146 7.43907 16.442 7.42414 16.4719 7.41419C16.5018 7.39926 16.5367 7.3918 16.5765 7.3918H17.2045C17.2892 7.3918 17.3564 7.4217 17.4063 7.48151C17.4611 7.53614 17.4885 7.6059 17.4885 7.69078V17.841C17.4885 17.9308 17.4561 18.008 17.3914 18.0727C17.3632 18.1041 17.3285 18.129 17.2898 18.1458C17.2511 18.1626 17.2092 18.1708 17.167 18.1698H16.2104Z" fill="white"/>
</g>
<defs>
<clipPath id="clip0_3126_192679">
<rect width="22.3491" height="24" fill="white" transform="translate(0.557373)"/>
</clipPath>
</defs>
</svg>
