<svg width="24" height="24" viewBox="0 0 24 24" fill="none" xmlns="http://www.w3.org/2000/svg">
<g clip-path="url(#clip0_998_164507)">
<path d="M16.5 3.375V7.875H7.5V16.125H3V4.875C3.00117 4.47753 3.15958 4.09668 3.44063 3.81563C3.72168 3.53458 4.10253 3.37617 4.5 3.375H16.5Z" fill="#4285F4"/>
<path d="M16.5 20.625V16.125H21L16.5 20.625Z" fill="#EA4435"/>
<path d="M21 7.125H16.5V16.125H21V7.125Z" fill="#FFBA00"/>
<path d="M16.5 20.625V16.125H7.5V20.625H16.5Z" fill="#00AC47"/>
<path d="M21 4.875V7.875H16.5V3.375H19.5C19.8975 3.37617 20.2783 3.53458 20.5594 3.81563C20.8404 4.09668 20.9988 4.47753 21 4.875Z" fill="#0066DA"/>
<path d="M7.5 16.125V20.625H4.5C4.10253 20.6238 3.72168 20.4654 3.44063 20.1844C3.15958 19.9033 3.00117 19.5225 3 19.125V16.125H7.5Z" fill="#188038"/>
<path d="M11.7675 12.8175C11.7675 13.485 11.2725 14.16 10.155 14.16C9.75579 14.1653 9.36236 14.0644 9.015 13.8675L8.955 13.8225L9.1725 13.2075L9.27 13.2675C9.53507 13.428 9.8377 13.516 10.1475 13.5225C10.2675 13.5302 10.3878 13.5136 10.5012 13.4736C10.6146 13.4337 10.7188 13.3712 10.8075 13.29C10.8711 13.2264 10.9206 13.1501 10.9529 13.0661C10.9852 12.9822 10.9995 12.8924 10.995 12.8025C10.9875 12.255 10.485 12.06 10.0125 12.06H9.6075V11.4525H10.0125C10.35 11.4525 10.8525 11.2875 10.8525 10.8375C10.8525 10.5 10.62 10.305 10.215 10.305C9.93552 10.3111 9.6641 10.3998 9.435 10.56L9.33 10.635L9.12 10.0425L9.1725 9.99753C9.51481 9.77751 9.91308 9.66037 10.32 9.66003C11.2125 9.66003 11.61 10.2075 11.61 10.7475C11.611 10.9508 11.5545 11.1502 11.447 11.3227C11.3395 11.4952 11.1854 11.6339 11.0025 11.7225C11.229 11.8014 11.4248 11.9497 11.5622 12.1463C11.6995 12.3428 11.7714 12.5777 11.7675 12.8175Z" fill="#4285F4"/>
<path d="M14.0325 9.73499V14.0925H13.2975V10.5L12.5925 10.8825L12.435 10.2675L13.4625 9.73499H14.0325Z" fill="#4285F4"/>
</g>
<defs>
<clipPath id="clip0_998_164507">
<rect width="24" height="24" fill="white"/>
</clipPath>
</defs>
</svg>
