<svg width="24" height="24" viewBox="0 0 24 24" fill="none" xmlns="http://www.w3.org/2000/svg">
<mask id="mask0_993_163839" style="mask-type:luminance" maskUnits="userSpaceOnUse" x="0" y="0" width="24" height="24">
<path d="M24 0H0V24H24V0Z" fill="white"/>
</mask>
<g mask="url(#mask0_993_163839)">
<g opacity="0.9">
<mask id="mask1_993_163839" style="mask-type:luminance" maskUnits="userSpaceOnUse" x="0" y="0" width="24" height="24">
<path d="M24 0H0V24H24V0Z" fill="white"/>
</mask>
<g mask="url(#mask1_993_163839)">
<path d="M17.0982 24H0.702797C0.516388 24 0.337614 23.9259 0.205802 23.7941C0.0739911 23.6623 -5.96851e-05 23.4836 -5.96851e-05 23.2971V17.34C9.31006e-05 16.7053 0.198398 16.0864 0.567182 15.5698C0.935966 15.0532 1.45683 14.6646 2.05708 14.4583L20.2285 8.22171C21.0127 7.95275 21.6761 7.41433 22.1006 6.70221C22.5251 5.9901 22.6833 5.15048 22.5469 4.33273C22.4105 3.51498 21.9884 2.77212 21.3558 2.23631C20.7232 1.7005 19.921 1.40649 19.0919 1.40657H1.40651V13.0071C1.40981 13.1016 1.39406 13.1957 1.3602 13.2839C1.32634 13.3721 1.27507 13.4526 1.20943 13.5205C1.1438 13.5885 1.06516 13.6426 0.978188 13.6795C0.891219 13.7164 0.797706 13.7354 0.703226 13.7354C0.608746 13.7354 0.515233 13.7164 0.428264 13.6795C0.341294 13.6426 0.262649 13.5885 0.197017 13.5205C0.131386 13.4526 0.080112 13.3721 0.046253 13.2839C0.0123941 13.1957 -0.00335656 13.1016 -5.96851e-05 13.0071V0.702857C-5.96851e-05 0.516448 0.0739911 0.337673 0.205802 0.205862C0.337614 0.0740508 0.516388 8.34791e-09 0.702797 8.34791e-09H19.0911C20.253 -6.77232e-05 21.3773 0.412026 22.264 1.16298C23.1506 1.91393 23.7421 2.95505 23.9333 4.10114C24.1245 5.24723 23.903 6.42399 23.3081 7.42208C22.7132 8.42018 21.7835 9.1749 20.6845 9.552L2.51308 15.7877C2.18993 15.899 1.90958 16.1083 1.7112 16.3866C1.51281 16.6649 1.40629 16.9982 1.40651 17.34V22.5934H17.0982C18.3412 22.5929 19.5473 22.1711 20.5196 21.3967C21.4919 20.6223 22.1729 19.5411 22.4514 18.3297C22.73 17.1183 22.5896 15.8483 22.0532 14.727C21.5169 13.6057 20.6162 12.6994 19.4982 12.156C19.3355 12.0716 19.2121 11.927 19.1544 11.753C19.0966 11.579 19.109 11.3893 19.189 11.2243C19.269 11.0594 19.4102 10.9321 19.5826 10.8697C19.7549 10.8072 19.9449 10.8145 20.1119 10.89C21.5165 11.5721 22.6483 12.7104 23.3223 14.1189C23.9964 15.5273 24.1729 17.1228 23.8231 18.6445C23.4733 20.1663 22.6178 21.5244 21.3963 22.4972C20.1749 23.4699 18.6597 23.9997 17.0982 24Z" fill="#226EB3"/>
</g>
</g>
<path d="M7.91058 9.83929C7.35437 9.83929 6.81064 9.67436 6.34816 9.36534C5.88568 9.05632 5.52523 8.6171 5.31237 8.10322C5.09952 7.58935 5.04382 7.02389 5.15234 6.47836C5.26085 5.93283 5.52869 5.43173 5.922 5.03842C6.3153 4.64512 6.8164 4.37727 7.36193 4.26876C7.90746 4.16025 8.47292 4.21594 8.9868 4.4288C9.50068 4.64165 9.9399 5.00211 10.2489 5.46459C10.5579 5.92706 10.7229 6.47079 10.7229 7.02701C10.7229 7.77287 10.4266 8.48819 9.89917 9.01559C9.37176 9.543 8.65645 9.83929 7.91058 9.83929ZM7.91058 5.62129C7.63235 5.62112 7.36032 5.70347 7.1289 5.85793C6.89748 6.01238 6.71706 6.232 6.61047 6.489C6.50388 6.746 6.4759 7.02884 6.53008 7.30175C6.58425 7.57465 6.71815 7.82536 6.91483 8.02216C7.11151 8.21896 7.36213 8.353 7.635 8.40735C7.90787 8.46169 8.19073 8.43388 8.4478 8.32745C8.70487 8.22101 8.92459 8.04073 9.07919 7.8094C9.23378 7.57808 9.3163 7.3061 9.3163 7.02787C9.3163 6.65497 9.16822 6.29733 8.90463 6.03357C8.64103 5.76981 8.28348 5.62152 7.91058 5.62129Z" fill="#226EB3"/>
<path d="M14.9615 19.7691C14.4053 19.7689 13.8616 19.6039 13.3993 19.2947C12.9369 18.9856 12.5766 18.5463 12.3639 18.0324C12.1511 17.5185 12.0956 16.9531 12.2042 16.4076C12.3128 15.8622 12.5807 15.3611 12.974 14.9679C13.3674 14.5747 13.8685 14.307 14.414 14.1985C14.9595 14.0901 15.5249 14.1458 16.0387 14.3587C16.5526 14.5716 16.9917 14.932 17.3007 15.3945C17.6097 15.8569 17.7746 16.4006 17.7746 16.9568C17.7746 17.3262 17.7018 17.692 17.5604 18.0332C17.4191 18.3745 17.2118 18.6846 16.9506 18.9457C16.6894 19.2069 16.3792 19.414 16.0379 19.5553C15.6966 19.6966 15.3308 19.7692 14.9615 19.7691ZM14.9615 15.5511C14.6833 15.5511 14.4113 15.6336 14.18 15.7882C13.9487 15.9427 13.7684 16.1624 13.662 16.4194C13.5555 16.6764 13.5276 16.9592 13.5819 17.2321C13.6362 17.5049 13.7701 17.7556 13.9669 17.9523C14.1636 18.149 14.4142 18.2829 14.687 18.3372C14.9599 18.3915 15.2427 18.3636 15.4997 18.2572C15.7567 18.1507 15.9764 17.9704 16.131 17.7391C16.2855 17.5078 16.368 17.2359 16.368 16.9577C16.368 16.5846 16.2198 16.2269 15.956 15.9631C15.6923 15.6993 15.3345 15.5511 14.9615 15.5511Z" fill="#226EB3"/>
</g>
</svg>
